<?xml version="1.0" encoding="utf-8"?>
<!-- Generator: Adobe Illustrator 22.0.0, SVG Export Plug-In . SVG Version: 6.00 Build 0)  -->
<svg version="1.1" id="Layer_1" xmlns="http://www.w3.org/2000/svg" xmlns:xlink="http://www.w3.org/1999/xlink" x="0px" y="0px"
	 viewBox="0 0 180 18.8" style="enable-background:new 0 0 180 18.8;" xml:space="preserve">
<style type="text/css">
	.st0{fill:none;}
	.st1{fill:#278AAC;}
	.st2{fill:#565656;}
	.st3{fill:#FFFFFF;}
</style>
<title>Artboard 1</title>
<path class="st0" d="M173.3,7.7c0-0.2,0-0.3,0.1-0.5c-0.1,0-0.2,0-0.3,0h-3.3c-0.3,0-0.6-0.1-0.9-0.3c0.1,0.3,0.2,0.5,0.2,0.8v3.6
	c0,0.2-0.1,0.5-0.1,0.6c0.3-0.1,0.5-0.2,0.8-0.2h3.3c0.1,0,0.3,0,0.4,0.1c-0.1-0.2-0.1-0.3-0.1-0.5V7.7z"/>
<path class="st1" d="M178.3,5.8H175c-0.1,0-0.2,0-0.3,0.1c0.1-0.2,0.1-0.3,0.1-0.5V1.8c0.1-1-0.7-1.8-1.7-1.8l0,0h-3.3
	c-1,0-1.7,0.8-1.7,1.8v3.6c0,0.3,0.1,0.5,0.2,0.8c-0.3-0.2-0.6-0.3-0.9-0.3H164c-0.1,0-0.2,0-0.3,0.1c0.1-0.2,0.1-0.3,0.1-0.5V1.8
	c0.1-1-0.7-1.8-1.7-1.8l0,0h-3.3c-0.9,0.1-1.7,0.8-1.6,1.8v3.6c0,0.3,0.1,0.5,0.2,0.8c-0.3-0.2-0.6-0.3-1-0.3h-3.3
	c-0.1,0-0.2,0-0.3,0.1c0.1-0.2,0.1-0.3,0.1-0.5V1.8c0.1-1-0.7-1.8-1.7-1.8l0,0h-3.3c-1,0.1-1.7,0.8-1.7,1.8v3.6c0,1,0.7,1.8,1.7,1.8
	h3.3c0.1,0,0.2,0,0.3,0c-0.1,0.2-0.1,0.3-0.1,0.5v3.6c0,0.2,0,0.3,0.1,0.5c-0.1-0.1-0.3-0.1-0.4-0.1h-3.3c-1,0-1.7,0.8-1.7,1.8l0,0
	V17c0,1,0.7,1.8,1.7,1.8l0,0h3.3c1,0,1.7-0.8,1.7-1.8l0,0v-3.6c0-0.2,0-0.3-0.1-0.5c0.1,0.1,0.3,0.1,0.4,0.1h3.3
	c0.3,0,0.5-0.1,0.8-0.2c-0.1,0.2-0.1,0.5-0.1,0.6V17c0,1,0.7,1.8,1.7,1.8h3.3c1,0,1.7-0.8,1.7-1.8l0,0v-3.5c0-0.2,0-0.3-0.1-0.5
	c0.1,0.1,0.3,0.1,0.4,0.1h3.3c0.3,0,0.6-0.1,0.8-0.2c-0.1,0.2-0.1,0.5-0.1,0.6v3.6c0,1,0.7,1.8,1.7,1.8l0,0h3.3c1,0,1.7-0.8,1.7-1.8
	l0,0v-3.5c0-0.2,0-0.3-0.1-0.5c0.1,0.1,0.3,0.1,0.4,0.1h3.3c1,0,1.7-0.8,1.7-1.8V7.8C180,6.7,179.3,5.9,178.3,5.8L178.3,5.8z
	 M158.8,11.8v-5l4.3,2.5L158.8,11.8z M169.7,11.6c-0.3,0-0.5,0.1-0.8,0.2c0.1-0.2,0.1-0.5,0.1-0.6V7.6c0-0.3-0.1-0.5-0.2-0.8
	c0.3,0.2,0.6,0.3,0.9,0.3h3.3c0.1,0,0.2,0,0.3,0c-0.1,0.2-0.1,0.3-0.1,0.5v3.6c0,0.2,0,0.3,0.1,0.5L169.7,11.6z"/>
<path class="st2" d="M169.6,11.6l3.8,0.1c-0.1-0.1-0.3-0.1-0.4-0.1H169.6z"/>
<path class="st3" d="M0,5.6h1.2v2.3c0.8-1.4,2-2.6,4.3-2.6c1.9-0.1,3.6,1,4.3,2.8c0.9-1.8,2.7-2.8,4.7-2.8c3.1,0,4.9,2.1,4.9,5.4
	v7.8h-1.2v-7.7c0-2.8-1.4-4.4-3.8-4.4c-2.2,0-4.1,1.7-4.1,4.5v7.5H9.1v-7.7c0-2.7-1.5-4.3-3.8-4.3S1.2,8.4,1.2,11v7.5H0V5.6z"/>
<path class="st3" d="M23.2,12.1L23.2,12.1c-0.1-3.7,2.9-6.8,6.6-6.8h0.1c3.6,0,6.6,3,6.6,6.6c0,0.1,0,0.1,0,0.1v0.1
	c0.1,3.7-2.9,6.7-6.6,6.8h-0.1c-3.6,0-6.6-2.9-6.6-6.6C23.2,12.1,23.2,12.1,23.2,12.1z M35.1,12.1L35.1,12.1
	c0.1-3.1-2.2-5.5-5.2-5.6c-0.1,0-0.1,0-0.1,0c-3.1,0-5.3,2.5-5.3,5.5V12c-0.1,3,2.3,5.5,5.3,5.6h0.1C32.9,17.6,35.1,15.1,35.1,12.1z
	"/>
<path class="st3" d="M41.5,15.7v2.8h-1.3V0h1.3v8.4c1.1-1.7,2.7-3.2,5.3-3.2c3.1,0,6.3,2.5,6.3,6.7V12c0,4.2-3.2,6.8-6.3,6.8
	C44.7,18.8,42.6,17.6,41.5,15.7z M51.8,12.1L51.8,12.1c0-3.4-2.4-5.6-5.1-5.6c-3,0.1-5.3,2.5-5.3,5.5v0.1c-0.1,3,2.3,5.5,5.3,5.5
	C49.5,17.6,51.8,15.6,51.8,12.1L51.8,12.1z"/>
<path class="st3" d="M57,0.5h1.6v1.7H57V0.5z M57.2,5.6h1.2v12.9h-1.2V5.6z"/>
<path class="st3" d="M63.5,0h1.2v18.5h-1.2V0z"/>
<path class="st3" d="M68.7,12.1L68.7,12.1c0-3.8,2.7-6.8,6.1-6.8c3.6,0,5.9,2.9,5.9,6.8c0,0.2,0,0.3,0,0.5H70
	c0.2,3.2,2.5,5.1,5.1,5.1c1.7,0,3.3-0.8,4.4-2l0.8,0.8C79,17.9,77,18.8,75,18.8C71.7,18.8,68.7,16.1,68.7,12.1z M79.4,11.4
	c-0.2-2.6-1.7-5-4.6-5c-2.5,0-4.5,2.1-4.7,5H79.4z"/>
<path class="st3" d="M84.4,5.6h1.2v3.7c0.9-2.3,3.2-3.9,5.7-3.9v1.4h-0.1c-3,0-5.6,2.3-5.6,6.5v5.3h-1.2V5.6z"/>
<path class="st3" d="M94.5,0.5h1.6v1.7h-1.6V0.5z M94.7,5.6h1.2v12.9h-1.2V5.6z"/>
<path class="st3" d="M100,12.1L100,12.1c0-4.2,3.2-6.8,6.3-6.8c2.2,0,4.2,1.2,5.3,3.1V0h1.2v18.5h-1.2v-2.9
	c-1.1,1.7-2.7,3.2-5.3,3.2C103.1,18.8,100,16.3,100,12.1z M111.6,12.1L111.6,12.1c0.1-3.1-2.3-5.5-5.3-5.6l0,0c-2.8,0-5.1,2-5.1,5.5
	v0.1c0,3.4,2.3,5.6,5.1,5.6C109.4,17.5,111.7,15.1,111.6,12.1L111.6,12.1L111.6,12.1z"/>
<path class="st3" d="M116.6,12.1L116.6,12.1c0-3.8,2.7-6.8,6.1-6.8c3.6,0,5.9,2.9,5.9,6.8c0,0.2,0,0.3,0,0.5h-10.7
	c0.3,3.2,2.5,5.1,5.1,5.1c1.7,0,3.3-0.7,4.4-2l0.8,0.8c-1.3,1.6-3.3,2.5-5.3,2.4C119.6,18.8,116.6,16.1,116.6,12.1z M127.4,11.4
	c-0.2-2.6-1.7-5-4.6-5c-2.5,0-4.5,2.1-4.7,5H127.4z"/>
<path class="st3" d="M132.3,5.6h1.2v3.7c0.9-2.3,3.2-3.9,5.7-3.9v1.4h-0.1c-3,0-5.6,2.3-5.6,6.5v5.3h-1.2V5.6L132.3,5.6z"/>
</svg>
